<svg width="170" height="37" viewBox="0 0 170 37" fill="none" xmlns="http://www.w3.org/2000/svg">
<g clip-path="url(#clip0_208_2164)">
<path d="M69.8335 -0.00195312L72.0761 6.87342H79.3335L73.4621 11.1226L75.7048 17.998L69.8335 13.7488L63.9621 17.998L66.2048 11.1226L60.3335 6.87342H67.5909L69.8335 -0.00195312Z" fill="#FFB900"/>
<path d="M92.8335 -0.00195312L95.0761 6.87342H102.333L96.4621 11.1226L98.7048 17.998L92.8335 13.7488L86.9622 17.998L89.2049 11.1226L83.3335 6.87342H90.5909L92.8335 -0.00195312Z" fill="#FFB900"/>
<path d="M115.833 -0.00195312L118.076 6.87342H125.333L119.462 11.1226L121.705 17.998L115.833 13.7488L109.962 17.998L112.205 11.1226L106.333 6.87342H113.591L115.833 -0.00195312Z" fill="#FFB900"/>
<path d="M138.833 -0.00195312L141.076 6.87342H148.333L142.462 11.1226L144.705 17.998L138.833 13.7488L132.962 17.998L135.205 11.1226L129.333 6.87342H136.591L138.833 -0.00195312Z" fill="#FFB900"/>
<path d="M161.833 -0.00195312L164.076 6.87342H171.333L165.462 11.1226L167.705 17.998L161.833 13.7488L155.962 17.998L158.205 11.1226L152.333 6.87342H159.591L161.833 -0.00195312Z" fill="#FFB900"/>
<g clip-path="url(#clip1_208_2164)">
<path d="M0.333496 -0.00195312H24.3335V23.998H0.333496V-0.00195312Z" fill="#19AA1E"/>
<path fill-rule="evenodd" clip-rule="evenodd" d="M0.333496 -0.00195312H24.3335V7.87224L0.333496 4.12276V-0.00195312Z" fill="#FFB919"/>
<path fill-rule="evenodd" clip-rule="evenodd" d="M0.333496 21.3725L24.3335 17.623V23.9977H0.333496V21.3725Z" fill="#82D714"/>
<path fill-rule="evenodd" clip-rule="evenodd" d="M0.333496 3.64844L8.71092 4.95741C9.75373 4.29711 10.9943 3.93496 12.3331 3.93496C14.1875 3.93496 15.8543 4.62944 17.0672 5.84824C17.22 6.00241 17.3639 6.16312 17.4999 6.33038L24.3335 7.39792V8.34692L18.1937 7.38701C18.6532 8.26549 18.8939 9.24189 18.8954 10.2333C18.8954 11.519 18.6082 12.8011 18.0133 14.0882L17.9959 14.1275L17.7428 14.6685H17.1465C15.9132 14.6685 15.0958 15.0372 14.5606 15.691C14.141 16.2037 13.8981 16.896 13.8166 17.6508L13.8137 17.6741L13.8021 17.7948L13.797 17.8471L13.7868 17.9497C13.7555 18.2871 13.7352 18.5729 13.7243 18.8056L24.3335 17.1476V18.0966L0.333496 21.8468V20.8978L10.9543 19.2383L10.95 19.0252L10.9485 18.9656L10.9471 18.9343L10.9456 18.8871C10.9362 18.6289 10.9122 18.298 10.8744 17.8966L10.8671 17.8202L10.854 17.6886C10.7784 16.9294 10.5391 16.2291 10.1195 15.7084C9.59084 15.0503 8.78146 14.6758 7.55757 14.6685H6.92344L6.6711 14.1275C6.06461 12.8272 5.77082 11.5321 5.77082 10.2333C5.77082 8.59999 6.43331 7.02049 7.59975 5.84824L7.70155 5.74861L0.333496 4.59672V3.64844Z" fill="#EFEFEF"/>
<path fill-rule="evenodd" clip-rule="evenodd" d="M12.3331 4.87207C15.6841 4.87207 17.9581 7.45075 17.9581 10.233C17.9581 11.35 17.7145 12.5121 17.1458 13.7309C13.8494 13.7309 13.0356 16.0914 12.8814 17.5778L12.8713 17.676C12.8196 18.2069 12.7891 18.6323 12.7811 18.9522L11.8881 19.0919V19.0628C11.8757 18.5902 11.8436 18.1183 11.7921 17.6484L11.7899 17.6222C11.6474 16.1394 10.8511 13.7309 7.52121 13.7309C6.95181 12.5121 6.70819 11.35 6.70819 10.233C6.70819 7.45075 8.98289 4.87207 12.3331 4.87207Z" fill="#0073FA"/>
</g>
<path d="M1.9535 36.2841C1.46016 36.2841 0.980163 36.2074 0.513496 36.0541C0.0534961 35.9008 -0.323171 35.6941 -0.616504 35.4341L-0.156504 34.6441C0.0768295 34.8641 0.380163 35.0441 0.753496 35.1841C1.12683 35.3241 1.52683 35.3941 1.9535 35.3941C2.4735 35.3941 2.87683 35.2841 3.1635 35.0641C3.45683 34.8374 3.6035 34.5341 3.6035 34.1541C3.6035 33.7874 3.4635 33.4941 3.1835 33.2741C2.91016 33.0474 2.4735 32.9341 1.8735 32.9341H1.3135V32.2341L3.3935 29.6741L3.5335 30.0741H-0.296504V29.2041H4.3235V29.8841L2.2535 32.4341L1.7335 32.1241H2.0635C2.91016 32.1241 3.5435 32.3141 3.9635 32.6941C4.39016 33.0741 4.6035 33.5574 4.6035 34.1441C4.6035 34.5374 4.50683 34.8974 4.3135 35.2241C4.12016 35.5508 3.82683 35.8108 3.4335 36.0041C3.04683 36.1908 2.5535 36.2841 1.9535 36.2841ZM8.39615 36.2841C7.84949 36.2841 7.35949 36.1441 6.92615 35.8641C6.49949 35.5841 6.15949 35.1774 5.90615 34.6441C5.65949 34.1108 5.53615 33.4641 5.53615 32.7041C5.53615 31.9441 5.65949 31.2974 5.90615 30.7641C6.15949 30.2308 6.49949 29.8241 6.92615 29.5441C7.35949 29.2641 7.84949 29.1241 8.39615 29.1241C8.93615 29.1241 9.42282 29.2641 9.85615 29.5441C10.2895 29.8241 10.6295 30.2308 10.8762 30.7641C11.1228 31.2974 11.2462 31.9441 11.2462 32.7041C11.2462 33.4641 11.1228 34.1108 10.8762 34.6441C10.6295 35.1774 10.2895 35.5841 9.85615 35.8641C9.42282 36.1441 8.93615 36.2841 8.39615 36.2841ZM8.39615 35.3941C8.76282 35.3941 9.08282 35.2941 9.35615 35.0941C9.63615 34.8941 9.85282 34.5941 10.0062 34.1941C10.1662 33.7941 10.2462 33.2974 10.2462 32.7041C10.2462 32.1108 10.1662 31.6141 10.0062 31.2141C9.85282 30.8141 9.63615 30.5141 9.35615 30.3141C9.08282 30.1141 8.76282 30.0141 8.39615 30.0141C8.02949 30.0141 7.70615 30.1141 7.42615 30.3141C7.14615 30.5141 6.92615 30.8141 6.76615 31.2141C6.61282 31.6141 6.53615 32.1108 6.53615 32.7041C6.53615 33.2974 6.61282 33.7941 6.76615 34.1941C6.92615 34.5941 7.14615 34.8941 7.42615 35.0941C7.70615 35.2941 8.02949 35.3941 8.39615 35.3941ZM15.0661 36.2841C14.5194 36.2841 14.0294 36.1441 13.5961 35.8641C13.1694 35.5841 12.8294 35.1774 12.5761 34.6441C12.3294 34.1108 12.2061 33.4641 12.2061 32.7041C12.2061 31.9441 12.3294 31.2974 12.5761 30.7641C12.8294 30.2308 13.1694 29.8241 13.5961 29.5441C14.0294 29.2641 14.5194 29.1241 15.0661 29.1241C15.6061 29.1241 16.0927 29.2641 16.5261 29.5441C16.9594 29.8241 17.2994 30.2308 17.5461 30.7641C17.7927 31.2974 17.9161 31.9441 17.9161 32.7041C17.9161 33.4641 17.7927 34.1108 17.5461 34.6441C17.2994 35.1774 16.9594 35.5841 16.5261 35.8641C16.0927 36.1441 15.6061 36.2841 15.0661 36.2841ZM15.0661 35.3941C15.4327 35.3941 15.7527 35.2941 16.0261 35.0941C16.3061 34.8941 16.5227 34.5941 16.6761 34.1941C16.8361 33.7941 16.9161 33.2974 16.9161 32.7041C16.9161 32.1108 16.8361 31.6141 16.6761 31.2141C16.5227 30.8141 16.3061 30.5141 16.0261 30.3141C15.7527 30.1141 15.4327 30.0141 15.0661 30.0141C14.6994 30.0141 14.3761 30.1141 14.0961 30.3141C13.8161 30.5141 13.5961 30.8141 13.4361 31.2141C13.2827 31.6141 13.2061 32.1108 13.2061 32.7041C13.2061 33.2974 13.2827 33.7941 13.4361 34.1941C13.5961 34.5941 13.8161 34.8941 14.0961 35.0941C14.3761 35.2941 14.6994 35.3941 15.0661 35.3941ZM24.2815 36.2641C23.7482 36.2641 23.2749 36.1474 22.8615 35.9141C22.4482 35.6808 22.1215 35.3608 21.8815 34.9541C21.6415 34.5408 21.5215 34.0741 21.5215 33.5541C21.5215 33.0274 21.6415 32.5608 21.8815 32.1541C22.1215 31.7474 22.4482 31.4308 22.8615 31.2041C23.2749 30.9708 23.7482 30.8541 24.2815 30.8541C24.8082 30.8541 25.2782 30.9708 25.6915 31.2041C26.1115 31.4308 26.4382 31.7474 26.6715 32.1541C26.9115 32.5541 27.0315 33.0208 27.0315 33.5541C27.0315 34.0808 26.9115 34.5474 26.6715 34.9541C26.4382 35.3608 26.1115 35.6808 25.6915 35.9141C25.2782 36.1474 24.8082 36.2641 24.2815 36.2641ZM24.2815 35.4241C24.6215 35.4241 24.9249 35.3474 25.1915 35.1941C25.4649 35.0408 25.6782 34.8241 25.8315 34.5441C25.9849 34.2574 26.0615 33.9274 26.0615 33.5541C26.0615 33.1741 25.9849 32.8474 25.8315 32.5741C25.6782 32.2941 25.4649 32.0774 25.1915 31.9241C24.9249 31.7708 24.6215 31.6941 24.2815 31.6941C23.9415 31.6941 23.6382 31.7708 23.3715 31.9241C23.1049 32.0774 22.8915 32.2941 22.7315 32.5741C22.5715 32.8474 22.4915 33.1741 22.4915 33.5541C22.4915 33.9274 22.5715 34.2574 22.7315 34.5441C22.8915 34.8241 23.1049 35.0408 23.3715 35.1941C23.6382 35.3474 23.9415 35.4241 24.2815 35.4241ZM29.2725 36.2041V31.4941L29.5125 31.7441H27.3325V30.9041H32.1725V31.7441H30.0025L30.2325 31.4941V36.2041H29.2725ZM34.5869 36.2741C34.1869 36.2741 33.7936 36.2241 33.4069 36.1241C33.0269 36.0174 32.6869 35.8674 32.3869 35.6741L32.6769 34.9441C32.9303 35.1041 33.2203 35.2308 33.5469 35.3241C33.8736 35.4108 34.2036 35.4541 34.5369 35.4541C34.8436 35.4541 35.1069 35.4174 35.3269 35.3441C35.5536 35.2708 35.7269 35.1708 35.8469 35.0441C35.9669 34.9108 36.0269 34.7574 36.0269 34.5841C36.0269 34.3374 35.9169 34.1474 35.6969 34.0141C35.4769 33.8808 35.1703 33.8141 34.7769 33.8141H33.8169V33.1241H34.7169C34.9503 33.1241 35.1536 33.0974 35.3269 33.0441C35.5003 32.9908 35.6336 32.9108 35.7269 32.8041C35.8269 32.6908 35.8769 32.5608 35.8769 32.4141C35.8769 32.2541 35.8203 32.1174 35.7069 32.0041C35.5936 31.8908 35.4336 31.8041 35.2269 31.7441C35.0269 31.6841 34.7903 31.6541 34.5169 31.6541C34.2503 31.6608 33.9769 31.6974 33.6969 31.7641C33.4236 31.8308 33.1436 31.9341 32.8569 32.0741L32.5969 31.3241C32.9169 31.1708 33.2303 31.0541 33.5369 30.9741C33.8503 30.8874 34.1603 30.8408 34.4669 30.8341C34.9269 30.8208 35.3369 30.8741 35.6969 30.9941C36.0569 31.1074 36.3403 31.2741 36.5469 31.4941C36.7603 31.7141 36.8669 31.9741 36.8669 32.2741C36.8669 32.5274 36.7869 32.7541 36.6269 32.9541C36.4669 33.1474 36.2536 33.3008 35.9869 33.4141C35.7203 33.5274 35.4136 33.5841 35.0669 33.5841L35.1069 33.3541C35.7003 33.3541 36.1669 33.4708 36.5069 33.7041C36.8469 33.9374 37.0169 34.2541 37.0169 34.6541C37.0169 34.9741 36.9103 35.2574 36.6969 35.5041C36.4836 35.7441 36.1936 35.9341 35.8269 36.0741C35.4669 36.2074 35.0536 36.2741 34.5869 36.2741ZM43.7164 36.2041V30.9041H44.6764V36.2041H43.7164ZM40.8664 32.7041C41.5397 32.7108 42.0497 32.8641 42.3964 33.1641C42.7497 33.4641 42.9264 33.8874 42.9264 34.4341C42.9264 35.0074 42.7331 35.4508 42.3464 35.7641C41.9664 36.0708 41.4197 36.2208 40.7064 36.2141L38.4764 36.2041V30.9041H39.4364V32.6941L40.8664 32.7041ZM40.6364 35.4841C41.0631 35.4908 41.3897 35.4041 41.6164 35.2241C41.8431 35.0441 41.9564 34.7774 41.9564 34.4241C41.9564 34.0774 41.8431 33.8241 41.6164 33.6641C41.3964 33.5041 41.0697 33.4208 40.6364 33.4141L39.4364 33.3941V35.4741L40.6364 35.4841ZM46.5428 36.2041V30.9041H49.0028C49.6228 30.9041 50.1095 31.0241 50.4628 31.2641C50.8228 31.4974 51.0028 31.8308 51.0028 32.2641C51.0028 32.6974 50.8328 33.0341 50.4928 33.2741C50.1595 33.5074 49.7161 33.6241 49.1628 33.6241L49.3128 33.3641C49.9461 33.3641 50.4161 33.4808 50.7228 33.7141C51.0295 33.9474 51.1828 34.2908 51.1828 34.7441C51.1828 35.2041 51.0095 35.5641 50.6628 35.8241C50.3228 36.0774 49.7995 36.2041 49.0928 36.2041H46.5428ZM47.4828 35.4641H49.0228C49.4228 35.4641 49.7228 35.4041 49.9228 35.2841C50.1228 35.1574 50.2228 34.9574 50.2228 34.6841C50.2228 34.4041 50.1295 34.2008 49.9428 34.0741C49.7628 33.9408 49.4761 33.8741 49.0828 33.8741H47.4828V35.4641ZM47.4828 33.1841H48.9228C49.2895 33.1841 49.5661 33.1174 49.7528 32.9841C49.9461 32.8441 50.0428 32.6508 50.0428 32.4041C50.0428 32.1508 49.9461 31.9608 49.7528 31.8341C49.5661 31.7074 49.2895 31.6441 48.9228 31.6441H47.4828V33.1841ZM54.9554 36.2641C54.422 36.2641 53.9487 36.1474 53.5354 35.9141C53.122 35.6808 52.7954 35.3608 52.5554 34.9541C52.3154 34.5408 52.1954 34.0741 52.1954 33.5541C52.1954 33.0274 52.3154 32.5608 52.5554 32.1541C52.7954 31.7474 53.122 31.4308 53.5354 31.2041C53.9487 30.9708 54.422 30.8541 54.9554 30.8541C55.482 30.8541 55.952 30.9708 56.3654 31.2041C56.7854 31.4308 57.112 31.7474 57.3454 32.1541C57.5854 32.5541 57.7054 33.0208 57.7054 33.5541C57.7054 34.0808 57.5854 34.5474 57.3454 34.9541C57.112 35.3608 56.7854 35.6808 56.3654 35.9141C55.952 36.1474 55.482 36.2641 54.9554 36.2641ZM54.9554 35.4241C55.2954 35.4241 55.5987 35.3474 55.8654 35.1941C56.1387 35.0408 56.352 34.8241 56.5054 34.5441C56.6587 34.2574 56.7354 33.9274 56.7354 33.5541C56.7354 33.1741 56.6587 32.8474 56.5054 32.5741C56.352 32.2941 56.1387 32.0774 55.8654 31.9241C55.5987 31.7708 55.2954 31.6941 54.9554 31.6941C54.6154 31.6941 54.312 31.7708 54.0454 31.9241C53.7787 32.0774 53.5654 32.2941 53.4054 32.5741C53.2454 32.8474 53.1654 33.1741 53.1654 33.5541C53.1654 33.9274 53.2454 34.2574 53.4054 34.5441C53.5654 34.8241 53.7787 35.0408 54.0454 35.1941C54.312 35.3474 54.6154 35.4241 54.9554 35.4241ZM59.0916 36.2041V30.9041H61.5516C62.1716 30.9041 62.6583 31.0241 63.0116 31.2641C63.3716 31.4974 63.5516 31.8308 63.5516 32.2641C63.5516 32.6974 63.3816 33.0341 63.0416 33.2741C62.7083 33.5074 62.265 33.6241 61.7116 33.6241L61.8616 33.3641C62.495 33.3641 62.965 33.4808 63.2716 33.7141C63.5783 33.9474 63.7316 34.2908 63.7316 34.7441C63.7316 35.2041 63.5583 35.5641 63.2116 35.8241C62.8716 36.0774 62.3483 36.2041 61.6416 36.2041H59.0916ZM60.0316 35.4641H61.5716C61.9716 35.4641 62.2716 35.4041 62.4716 35.2841C62.6716 35.1574 62.7716 34.9574 62.7716 34.6841C62.7716 34.4041 62.6783 34.2008 62.4916 34.0741C62.3116 33.9408 62.025 33.8741 61.6316 33.8741H60.0316V35.4641ZM60.0316 33.1841H61.4716C61.8383 33.1841 62.115 33.1174 62.3016 32.9841C62.495 32.8441 62.5916 32.6508 62.5916 32.4041C62.5916 32.1508 62.495 31.9608 62.3016 31.8341C62.115 31.7074 61.8383 31.6441 61.4716 31.6441H60.0316V33.1841Z" fill="white"/>
<path d="M91.5735 36.078C91.0402 36.078 90.5435 35.988 90.0835 35.808C89.6302 35.628 89.2368 35.378 88.9035 35.058C88.5702 34.7314 88.3102 34.3514 88.1235 33.918C87.9368 33.4847 87.8435 33.0114 87.8435 32.498C87.8435 31.9847 87.9368 31.5114 88.1235 31.078C88.3102 30.6447 88.5702 30.268 88.9035 29.948C89.2368 29.6214 89.6302 29.368 90.0835 29.188C90.5368 29.008 91.0335 28.918 91.5735 28.918C92.1068 28.918 92.5968 29.008 93.0435 29.188C93.4968 29.3614 93.8902 29.6114 94.2235 29.938C94.5635 30.258 94.8235 30.6347 95.0035 31.068C95.1902 31.5014 95.2835 31.978 95.2835 32.498C95.2835 33.018 95.1902 33.4947 95.0035 33.928C94.8235 34.3614 94.5635 34.7414 94.2235 35.068C93.8902 35.388 93.4968 35.638 93.0435 35.818C92.5968 35.9914 92.1068 36.078 91.5735 36.078ZM91.5735 35.188C91.9602 35.188 92.3168 35.1214 92.6435 34.988C92.9768 34.8547 93.2635 34.668 93.5035 34.428C93.7502 34.1814 93.9402 33.8947 94.0735 33.568C94.2135 33.2414 94.2835 32.8847 94.2835 32.498C94.2835 32.1114 94.2135 31.7547 94.0735 31.428C93.9402 31.1014 93.7502 30.818 93.5035 30.578C93.2635 30.3314 92.9768 30.1414 92.6435 30.008C92.3168 29.8747 91.9602 29.808 91.5735 29.808C91.1802 29.808 90.8168 29.8747 90.4835 30.008C90.1568 30.1414 89.8702 30.3314 89.6235 30.578C89.3768 30.818 89.1835 31.1014 89.0435 31.428C88.9102 31.7547 88.8435 32.1114 88.8435 32.498C88.8435 32.8847 88.9102 33.2414 89.0435 33.568C89.1835 33.8947 89.3768 34.1814 89.6235 34.428C89.8702 34.668 90.1568 34.8547 90.4835 34.988C90.8168 35.1214 91.1802 35.188 91.5735 35.188ZM99.0501 36.058C98.5101 36.058 98.0267 35.9414 97.6001 35.708C97.1801 35.4747 96.8501 35.1547 96.6101 34.748C96.3701 34.3414 96.2501 33.8747 96.2501 33.348C96.2501 32.8214 96.3701 32.3547 96.6101 31.948C96.8501 31.5414 97.1801 31.2247 97.6001 30.998C98.0267 30.7647 98.5101 30.648 99.0501 30.648C99.5301 30.648 99.9567 30.7447 100.33 30.938C100.71 31.1247 101.003 31.4047 101.21 31.778L100.48 32.248C100.307 31.988 100.093 31.798 99.8401 31.678C99.5934 31.5514 99.3267 31.488 99.0401 31.488C98.6934 31.488 98.3834 31.5647 98.1101 31.718C97.8367 31.8714 97.6201 32.088 97.4601 32.368C97.3001 32.6414 97.2201 32.968 97.2201 33.348C97.2201 33.728 97.3001 34.058 97.4601 34.338C97.6201 34.618 97.8367 34.8347 98.1101 34.988C98.3834 35.1414 98.6934 35.218 99.0401 35.218C99.3267 35.218 99.5934 35.158 99.8401 35.038C100.093 34.9114 100.307 34.718 100.48 34.458L101.21 34.918C101.003 35.2847 100.71 35.568 100.33 35.768C99.9567 35.9614 99.5301 36.058 99.0501 36.058ZM103.435 35.998V31.288L103.675 31.538H101.495V30.698H106.335V31.538H104.165L104.395 31.288V35.998H103.435ZM110.566 35.998V34.878L110.516 34.668V32.758C110.516 32.3514 110.396 32.038 110.156 31.818C109.923 31.5914 109.57 31.478 109.096 31.478C108.783 31.478 108.476 31.5314 108.176 31.638C107.876 31.738 107.623 31.8747 107.416 32.048L107.016 31.328C107.29 31.108 107.616 30.9414 107.996 30.828C108.383 30.708 108.786 30.648 109.206 30.648C109.933 30.648 110.493 30.8247 110.886 31.178C111.28 31.5314 111.476 32.0714 111.476 32.798V35.998H110.566ZM108.826 36.058C108.433 36.058 108.086 35.9914 107.786 35.858C107.493 35.7247 107.266 35.5414 107.106 35.308C106.946 35.068 106.866 34.798 106.866 34.498C106.866 34.2114 106.933 33.9514 107.066 33.718C107.206 33.4847 107.43 33.298 107.736 33.158C108.05 33.018 108.47 32.948 108.996 32.948H110.676V33.638H109.036C108.556 33.638 108.233 33.718 108.066 33.878C107.9 34.038 107.816 34.2314 107.816 34.458C107.816 34.718 107.92 34.928 108.126 35.088C108.333 35.2414 108.62 35.318 108.986 35.318C109.346 35.318 109.66 35.238 109.926 35.078C110.2 34.918 110.396 34.6847 110.516 34.378L110.706 35.038C110.58 35.3514 110.356 35.6014 110.036 35.788C109.716 35.968 109.313 36.058 108.826 36.058ZM113.205 35.998V30.698H115.665C116.285 30.698 116.772 30.818 117.125 31.058C117.485 31.2914 117.665 31.6247 117.665 32.058C117.665 32.4914 117.495 32.828 117.155 33.068C116.822 33.3014 116.378 33.418 115.825 33.418L115.975 33.158C116.608 33.158 117.078 33.2747 117.385 33.508C117.692 33.7414 117.845 34.0847 117.845 34.538C117.845 34.998 117.672 35.358 117.325 35.618C116.985 35.8714 116.462 35.998 115.755 35.998H113.205ZM114.145 35.258H115.685C116.085 35.258 116.385 35.198 116.585 35.078C116.785 34.9514 116.885 34.7514 116.885 34.478C116.885 34.198 116.792 33.9947 116.605 33.868C116.425 33.7347 116.138 33.668 115.745 33.668H114.145V35.258ZM114.145 32.978H115.585C115.952 32.978 116.228 32.9114 116.415 32.778C116.608 32.638 116.705 32.4447 116.705 32.198C116.705 31.9447 116.608 31.7547 116.415 31.628C116.228 31.5014 115.952 31.438 115.585 31.438H114.145V32.978ZM119.347 35.998V30.698H120.307V34.558L123.557 30.698H124.427V35.998H123.467V32.138L120.227 35.998H119.347ZM127.341 35.998V31.288L127.581 31.538H125.401V30.698H130.241V31.538H128.071L128.301 31.288V35.998H127.341ZM133.672 32.498C134.346 32.5047 134.859 32.658 135.212 32.958C135.566 33.258 135.742 33.6814 135.742 34.228C135.742 34.8014 135.549 35.2447 135.162 35.558C134.776 35.8647 134.229 36.0147 133.522 36.008L131.222 35.998V30.698H132.182V32.488L133.672 32.498ZM133.442 35.278C133.876 35.2847 134.202 35.198 134.422 35.018C134.649 34.838 134.762 34.5714 134.762 34.218C134.762 33.8714 134.652 33.618 134.432 33.458C134.212 33.298 133.882 33.2147 133.442 33.208L132.182 33.188V35.268L133.442 35.278ZM141.93 36.058C141.397 36.058 140.923 35.9414 140.51 35.708C140.097 35.4747 139.77 35.1547 139.53 34.748C139.29 34.3347 139.17 33.868 139.17 33.348C139.17 32.8214 139.29 32.3547 139.53 31.948C139.77 31.5414 140.097 31.2247 140.51 30.998C140.923 30.7647 141.397 30.648 141.93 30.648C142.457 30.648 142.927 30.7647 143.34 30.998C143.76 31.2247 144.087 31.5414 144.32 31.948C144.56 32.348 144.68 32.8147 144.68 33.348C144.68 33.8747 144.56 34.3414 144.32 34.748C144.087 35.1547 143.76 35.4747 143.34 35.708C142.927 35.9414 142.457 36.058 141.93 36.058ZM141.93 35.218C142.27 35.218 142.573 35.1414 142.84 34.988C143.113 34.8347 143.327 34.618 143.48 34.338C143.633 34.0514 143.71 33.7214 143.71 33.348C143.71 32.968 143.633 32.6414 143.48 32.368C143.327 32.088 143.113 31.8714 142.84 31.718C142.573 31.5647 142.27 31.488 141.93 31.488C141.59 31.488 141.287 31.5647 141.02 31.718C140.753 31.8714 140.54 32.088 140.38 32.368C140.22 32.6414 140.14 32.968 140.14 33.348C140.14 33.7214 140.22 34.0514 140.38 34.338C140.54 34.618 140.753 34.8347 141.02 34.988C141.287 35.1414 141.59 35.218 141.93 35.218ZM146.921 35.998V31.288L147.161 31.538H144.981V30.698H149.821V31.538H147.651L147.881 31.288V35.998H146.921ZM152.235 36.068C151.835 36.068 151.442 36.018 151.055 35.918C150.675 35.8114 150.335 35.6614 150.035 35.468L150.325 34.738C150.579 34.898 150.869 35.0247 151.195 35.118C151.522 35.2047 151.852 35.248 152.185 35.248C152.492 35.248 152.755 35.2114 152.975 35.138C153.202 35.0647 153.375 34.9647 153.495 34.838C153.615 34.7047 153.675 34.5514 153.675 34.378C153.675 34.1314 153.565 33.9414 153.345 33.808C153.125 33.6747 152.819 33.608 152.425 33.608H151.465V32.918H152.365C152.599 32.918 152.802 32.8914 152.975 32.838C153.149 32.7847 153.282 32.7047 153.375 32.598C153.475 32.4847 153.525 32.3547 153.525 32.208C153.525 32.048 153.469 31.9114 153.355 31.798C153.242 31.6847 153.082 31.598 152.875 31.538C152.675 31.478 152.439 31.448 152.165 31.448C151.899 31.4547 151.625 31.4914 151.345 31.558C151.072 31.6247 150.792 31.728 150.505 31.868L150.245 31.118C150.565 30.9647 150.879 30.848 151.185 30.768C151.499 30.6814 151.809 30.6347 152.115 30.628C152.575 30.6147 152.985 30.668 153.345 30.788C153.705 30.9014 153.989 31.068 154.195 31.288C154.409 31.508 154.515 31.768 154.515 32.068C154.515 32.3214 154.435 32.548 154.275 32.748C154.115 32.9414 153.902 33.0947 153.635 33.208C153.369 33.3214 153.062 33.378 152.715 33.378L152.755 33.148C153.349 33.148 153.815 33.2647 154.155 33.498C154.495 33.7314 154.665 34.048 154.665 34.448C154.665 34.768 154.559 35.0514 154.345 35.298C154.132 35.538 153.842 35.728 153.475 35.868C153.115 36.0014 152.702 36.068 152.235 36.068ZM161.365 35.998V30.698H162.325V35.998H161.365ZM158.515 32.498C159.188 32.5047 159.698 32.658 160.045 32.958C160.398 33.258 160.575 33.6814 160.575 34.228C160.575 34.8014 160.381 35.2447 159.995 35.558C159.615 35.8647 159.068 36.0147 158.355 36.008L156.125 35.998V30.698H157.085V32.488L158.515 32.498ZM158.285 35.278C158.711 35.2847 159.038 35.198 159.265 35.018C159.491 34.838 159.605 34.5714 159.605 34.218C159.605 33.8714 159.491 33.618 159.265 33.458C159.045 33.298 158.718 33.2147 158.285 33.208L157.085 33.188V35.268L158.285 35.278ZM164.191 35.998V30.698H166.651C167.271 30.698 167.758 30.818 168.111 31.058C168.471 31.2914 168.651 31.6247 168.651 32.058C168.651 32.4914 168.481 32.828 168.141 33.068C167.808 33.3014 167.365 33.418 166.811 33.418L166.961 33.158C167.595 33.158 168.065 33.2747 168.371 33.508C168.678 33.7414 168.831 34.0847 168.831 34.538C168.831 34.998 168.658 35.358 168.311 35.618C167.971 35.8714 167.448 35.998 166.741 35.998H164.191ZM165.131 35.258H166.671C167.071 35.258 167.371 35.198 167.571 35.078C167.771 34.9514 167.871 34.7514 167.871 34.478C167.871 34.198 167.778 33.9947 167.591 33.868C167.411 33.7347 167.125 33.668 166.731 33.668H165.131V35.258ZM165.131 32.978H166.571C166.938 32.978 167.215 32.9114 167.401 32.778C167.595 32.638 167.691 32.4447 167.691 32.198C167.691 31.9447 167.595 31.7547 167.401 31.628C167.215 31.5014 166.938 31.438 166.571 31.438H165.131V32.978Z" fill="white"/>
<path d="M34.4735 16.148C33.7335 16.148 33.0085 16.043 32.2985 15.833C31.5985 15.613 31.0085 15.313 30.5285 14.933L31.3535 13.418C31.7335 13.728 32.1935 13.978 32.7335 14.168C33.2835 14.358 33.8535 14.453 34.4435 14.453C35.1335 14.453 35.6735 14.308 36.0635 14.018C36.4635 13.728 36.6635 13.338 36.6635 12.848C36.6635 12.518 36.5785 12.228 36.4085 11.978C36.2485 11.728 35.9585 11.538 35.5385 11.408C35.1285 11.278 34.5635 11.213 33.8435 11.213H31.3085L31.8485 5.49805H38.0135V7.13305H32.5685L33.5885 6.20305L33.1835 10.478L32.1635 9.56305H34.2785C35.3185 9.56305 36.1535 9.70305 36.7835 9.98305C37.4235 10.253 37.8885 10.633 38.1785 11.123C38.4785 11.603 38.6285 12.153 38.6285 12.773C38.6285 13.383 38.4785 13.943 38.1785 14.453C37.8785 14.963 37.4185 15.373 36.7985 15.683C36.1885 15.993 35.4135 16.148 34.4735 16.148ZM39.8283 18.263L40.6983 14.948L40.9533 16.058C40.6033 16.058 40.3083 15.953 40.0683 15.743C39.8383 15.523 39.7233 15.228 39.7233 14.858C39.7233 14.478 39.8383 14.178 40.0683 13.958C40.3083 13.728 40.5983 13.613 40.9383 13.613C41.2883 13.613 41.5783 13.728 41.8083 13.958C42.0383 14.188 42.1533 14.488 42.1533 14.858C42.1533 14.958 42.1433 15.068 42.1233 15.188C42.1033 15.298 42.0683 15.428 42.0183 15.578C41.9783 15.728 41.9083 15.918 41.8083 16.148L41.0433 18.263H39.8283ZM47.6196 16.148C46.7896 16.148 46.0396 15.938 45.3696 15.518C44.7096 15.098 44.1896 14.488 43.8096 13.688C43.4296 12.878 43.2396 11.898 43.2396 10.748C43.2396 9.59805 43.4296 8.62305 43.8096 7.82305C44.1896 7.01305 44.7096 6.39805 45.3696 5.97805C46.0396 5.55805 46.7896 5.34805 47.6196 5.34805C48.4596 5.34805 49.2096 5.55805 49.8696 5.97805C50.5296 6.39805 51.0496 7.01305 51.4296 7.82305C51.8196 8.62305 52.0146 9.59805 52.0146 10.748C52.0146 11.898 51.8196 12.878 51.4296 13.688C51.0496 14.488 50.5296 15.098 49.8696 15.518C49.2096 15.938 48.4596 16.148 47.6196 16.148ZM47.6196 14.453C48.1096 14.453 48.5346 14.323 48.8946 14.063C49.2546 13.793 49.5346 13.383 49.7346 12.833C49.9446 12.283 50.0496 11.588 50.0496 10.748C50.0496 9.89805 49.9446 9.20305 49.7346 8.66305C49.5346 8.11305 49.2546 7.70805 48.8946 7.44805C48.5346 7.17805 48.1096 7.04305 47.6196 7.04305C47.1496 7.04305 46.7296 7.17805 46.3596 7.44805C45.9996 7.70805 45.7146 8.11305 45.5046 8.66305C45.3046 9.20305 45.2046 9.89805 45.2046 10.748C45.2046 11.588 45.3046 12.283 45.5046 12.833C45.7146 13.383 45.9996 13.793 46.3596 14.063C46.7296 14.323 47.1496 14.453 47.6196 14.453Z" fill="white"/>
</g>
<defs>
<clipPath id="clip0_208_2164">
<rect width="170" height="37" fill="white"/>
</clipPath>
<clipPath id="clip1_208_2164">
<rect x="0.333496" y="-0.00195312" width="24" height="24" rx="4" fill="white"/>
</clipPath>
</defs>
</svg>
