<svg width="104" height="130" viewBox="0 0 104 130" fill="none" xmlns="http://www.w3.org/2000/svg">
<path d="M96.4702 12.8926C101.486 24.0345 100.236 39.7428 95.4272 50.5376C88.9764 65.0184 73.6325 74.0731 56.1312 68.1919C46.2168 64.8602 39.7321 47.7717 51.6333 42.6155C59.6783 39.13 68.0798 43.1912 72.2544 54.3749C76.4291 65.5586 70.3856 88.2498 54.0061 97.0603C37.6267 105.871 15.0029 109.214 3.83496 106.773" stroke="white" stroke-width="2" stroke-linecap="round" stroke-dasharray="6 6"/>
<path d="M26.3513 93.9714C26.4095 93.9241 26.5439 93.9683 26.6238 93.9363C26.9589 93.8033 27.1083 93.8075 27.4191 93.7033C27.88 93.549 29.1215 92.8228 29.4095 93.4341C29.4096 93.4342 29.4096 93.4342 29.4096 93.4342C29.4124 93.4402 29.4151 93.4463 29.4178 93.4526C29.4681 93.5712 29.4178 93.7503 29.4635 93.8897C29.5092 94.0292 29.9222 94.8741 29.7882 94.9957C29.5909 95.1656 28.9436 95.2041 28.827 95.2708C28.7474 95.3164 28.6819 95.4418 28.5826 95.5054C28.2622 95.7104 28.0569 95.738 27.8485 96.0929C27.6733 96.0401 27.4982 95.9873 27.3231 95.9346C27.1868 96.0615 26.8748 96.0301 26.7811 96.084C26.7042 96.1283 26.6986 96.2379 26.6172 96.2813C26.5261 96.3304 26.338 96.3035 26.1747 96.3979C25.9067 96.5521 25.9646 96.8038 25.811 96.9116C25.6517 97.0234 25.3235 97.0263 25.14 97.2109C25.1241 97.2491 25.1082 97.2873 25.0923 97.3255C25.1389 97.373 25.1856 97.4204 25.2322 97.4679C25.1332 97.5468 25.0304 97.453 24.927 97.4991C24.8053 97.5534 24.7958 97.6927 24.7145 97.7304C24.6478 97.7612 24.516 97.7151 24.4325 97.7613C24.3105 97.8281 24.3981 97.9429 24.3418 97.9987C24.3192 98.0207 23.8539 98.3261 23.8263 98.3403C23.6148 98.4461 23.5137 98.28 23.3359 98.345C22.8432 98.5262 22.4242 98.8963 22.0117 99.1559C21.8276 99.2719 21.6189 99.3577 21.4109 99.4215C21.5069 98.8293 20.6636 98.8008 21.2476 99.3817C20.9839 99.3841 20.9193 99.6457 20.6987 99.7105C20.556 99.7523 20.4182 99.6985 20.2296 99.7904C19.8953 99.9542 19.657 100.404 19.325 99.9504C18.9712 100.225 18.5435 100.205 18.6086 100.713C18.5193 100.788 18.1344 100.648 18.0033 100.666C17.8794 100.684 16.9939 100.956 16.855 101.013C16.7162 101.071 16.4752 101.176 16.3791 101.268C16.258 101.384 16.3729 101.888 15.8655 101.474C15.5886 101.657 15.4755 101.692 15.1698 101.76C15.1144 101.772 15.0714 101.696 15.0421 101.709C14.9819 101.738 14.907 101.845 14.8028 101.903C14.6315 101.998 14.4519 101.878 14.5917 102.124C14.4953 102.221 14.3988 102.319 14.3024 102.417C14.2383 102.387 14.1742 102.357 14.1102 102.327C14.0731 102.41 14.036 102.493 13.9989 102.576C13.8984 102.173 13.5622 102.597 13.8044 102.741C13.5424 102.772 13.2804 102.802 13.0185 102.832C12.8525 102.398 12.4995 103.017 12.6513 103.224C12.6253 103.236 12.5992 103.248 12.5732 103.26C12.2943 103.255 12.1294 103.444 11.8182 103.499C11.507 103.555 11.5137 103.502 11.3389 103.348C11.2792 103.39 11.2195 103.432 11.1597 103.473C11.068 104.162 10.6971 103.219 10.3047 103.899C9.96172 103.655 9.58442 104.046 9.3272 104.29C9.29726 104.318 9.32703 104.383 9.28918 104.425C9.19627 104.528 8.86265 104.583 8.97071 104.787C8.84039 104.775 8.71007 104.762 8.57975 104.75C8.51422 104.827 8.44869 104.904 8.38316 104.981C8.41417 105.046 8.44519 105.111 8.4762 105.176C8.20411 105.033 7.98046 105.243 7.82544 105.251C7.79451 105.253 7.74671 105.166 7.65473 105.179C7.54702 105.194 7.38425 105.304 7.25899 105.328C7.26216 105.448 7.26534 105.568 7.26851 105.688C7.09344 105.836 6.89962 105.607 6.77234 105.642C6.74949 105.649 6.37176 105.85 6.35357 105.865C6.20392 105.99 6.35734 106.19 5.84164 106.375C5.74975 106.407 5.64234 106.364 5.56151 106.398C5.41864 106.458 5.07858 106.832 5.12157 107.01C4.8561 106.888 4.44003 107.185 4.27842 107.189C4.22949 107.19 4.1596 107.066 4.02232 107.097C3.91097 107.122 3.70001 107.348 3.56401 107.39C3.41944 107.436 3.31993 107.35 3.25551 107.371C3.19471 107.391 3.18296 107.503 3.10444 107.54C2.8842 107.64 2.6304 107.621 2.44017 107.68L2.45002 106.394C2.46914 106.407 2.48853 106.419 2.50835 106.429C2.78366 106.569 3.15456 106.432 3.44249 106.432C3.49191 106.476 3.52145 106.559 3.58158 106.589C4.32449 106.963 5.1438 107.424 5.86592 107.846C6.20129 108.041 6.8951 108.814 6.94956 108.119C7.12038 108.076 7.88408 108.741 8.0495 108.827C8.21488 108.912 8.3985 108.873 8.5306 108.935C8.92919 109.125 9.17143 109.337 9.69844 109.483C9.8347 109.52 10.0288 109.462 10.1019 109.499C10.1898 109.545 10.2268 109.711 10.3383 109.775C10.6043 109.927 11.1351 110.138 11.3883 110.288C11.4344 110.316 11.3998 110.429 11.4525 110.495C11.6574 110.755 11.9631 110.891 12.0742 110.529C12.3242 110.888 12.7268 110.87 13.0501 111.015C13.7332 111.323 14.92 112.001 15.5749 112.148C15.9879 112.24 16.0521 112.085 16.5324 112.481C16.6391 112.569 16.7402 112.667 16.8699 112.773C17.1735 113.022 17.3523 113.454 17.778 113.247C18.1166 113.521 18.4504 113.608 18.593 114.033C18.66 113.981 18.727 113.928 18.794 113.876C18.8415 113.897 18.8891 113.918 18.9367 113.94C18.9192 114.012 18.9017 114.085 18.8841 114.157C19.2103 114.339 19.767 114.278 20.0495 114.419C20.5232 114.655 21.6959 115.359 22.1032 115.668C22.3194 115.832 22.401 115.698 22.3967 116.054C22.46 116.06 22.5233 116.066 22.5867 116.072C22.6511 116.026 22.7155 115.979 22.7799 115.932C23.0881 116.08 23.404 116.356 23.6969 116.499C24.2307 116.758 25.1158 116.976 25.5949 117.352C25.715 117.447 25.8189 117.659 25.951 117.722C26.1431 117.814 26.2955 117.62 26.5401 117.735C26.9615 117.933 27.6173 118.566 28.0219 118.741C28.142 118.792 28.2362 118.739 28.3215 118.77C28.6794 118.9 28.9553 119.043 29.3421 119.078C29.5906 119.457 29.4294 119.709 29.4057 120.032C29.3882 120.276 29.4091 120.871 29.3575 121.067C29.3213 121.205 29.1485 121.32 29.1162 121.475C28.6429 121.38 28.5262 121.172 28.2807 120.811C27.6482 120.511 27.0157 120.211 26.3831 119.91C26.3628 119.807 26.3425 119.704 26.3222 119.6C26.3222 119.6 26.3223 119.6 26.3224 119.6C26.1235 119.395 25.9262 119.538 25.7744 119.519C24.3214 119.329 22.0291 117.797 20.6799 117.077C20.3891 116.922 19.3774 116.552 19.2343 116.331C19.1974 116.273 19.2396 116.15 19.1862 116.117C18.653 115.942 18.1197 115.766 17.5865 115.59C16.6479 114.907 15.5132 114.535 14.4648 114.056C11.6282 112.76 8.81167 111.493 6.07142 110.116C5.54192 109.85 4.82394 109.606 4.33037 109.294C4.12431 109.165 4.125 108.934 3.77129 108.933C3.79289 108.881 3.81449 108.829 3.83609 108.778C3.5571 108.716 3.34181 108.752 3.05662 108.627C2.81655 108.521 2.19019 108.224 1.9916 108.103C1.88842 108.04 1.97458 107.966 1.87378 107.917C1.83613 107.899 1.78622 107.883 1.72874 107.867L2.15561e-05 107.098L1.74153 106.197C1.91546 106.072 2.14537 105.866 2.33261 105.777C2.54943 105.675 2.96625 105.612 3.12553 105.518C3.69951 105.179 4.27742 104.709 4.93757 104.451C5.12006 104.38 5.40511 104.396 5.45884 104.366C5.56359 104.308 5.53972 104.174 5.60513 104.124C5.93757 103.873 6.57921 103.744 6.94342 103.579C8.13023 103.042 9.35389 102.402 10.5373 101.872C11.2849 101.536 12.5067 100.935 13.2331 100.702C13.3898 100.652 13.4119 100.801 13.5358 100.743C13.6732 100.678 13.706 100.555 13.7669 100.517C14.1878 100.258 15.1268 99.7069 15.5888 99.5993C15.6769 99.5789 15.783 99.6538 15.8306 99.6309C15.8549 99.6194 15.8767 99.5239 15.9494 99.481C16.591 99.1016 17.0996 98.9117 17.7687 98.6257C19.0498 98.0775 20.4484 97.2601 21.805 96.7068C22.1005 96.5862 22.3935 96.6952 22.4331 96.6741C22.5201 96.6281 22.513 96.4653 22.6774 96.3468C23.2246 95.9542 24.0999 95.7191 24.6377 95.3824C24.9035 95.2162 25.2091 94.8614 25.4682 94.6926C25.6751 94.5579 26.2296 94.3793 26.292 94.2574C26.3302 94.1835 26.2885 94.0234 26.3513 93.9714ZM19.974 99.7722C19.9027 99.5186 19.5804 99.9091 19.7953 99.9621C19.8437 99.974 19.9926 99.838 19.974 99.7722ZM4.38089 107.488C4.40978 107.419 4.43867 107.351 4.46756 107.282C4.39997 107.284 4.33239 107.285 4.26481 107.286C4.27552 107.341 4.28624 107.396 4.29695 107.451C4.32493 107.463 4.35291 107.476 4.38089 107.488Z" fill="white"/>
</svg>
