<svg xmlns="http://www.w3.org/2000/svg" width="24" height="26" viewBox="0 0 24 26" fill="none">
<path d="M15.6193 4.29705C10.9034 1.63975 5.3915 3.09565 0 8.79555C0.8469 4.92275 3.0646 2.44265 5.8225 1.13375C9.4497 0.056749 13.6725 1.12995 15.6193 4.29705Z" fill="white"/>
<path d="M21.6768 4.84636L19.2116 7.31236C18.0825 6.01576 16.8791 5.01136 15.6192 4.29706C13.5143 1.46456 9.53243 0.220657 5.82703 1.13376C11.0548 -1.34254 18.2227 0.390257 21.6768 4.84636Z" fill="white"/>
<path d="M22.4654 6.03271L20.0961 8.40541C19.9983 8.27601 19.9004 8.15041 19.8026 8.02851L22.2132 5.61621C22.3016 5.75101 22.3854 5.88951 22.4654 6.03271Z" fill="white"/>
<path d="M23.2248 13.8962C22.5116 12.2429 21.6469 10.6593 20.642 9.1658L22.9002 6.9043C23.7799 8.8916 23.9916 11.2511 23.2248 13.8962Z" fill="white"/>
<path d="M22.2133 5.61624L19.8026 8.02854C19.6069 7.78164 19.4103 7.54324 19.2117 7.31614L21.6769 4.84644C21.8651 5.09454 22.0439 5.35114 22.2133 5.61624Z" fill="white"/>
<path d="M22.9 6.90063L20.6418 9.16213C20.4621 8.90013 20.2815 8.64763 20.098 8.40163L22.4672 6.02893C22.6269 6.31163 22.7714 6.60253 22.9 6.90063Z" fill="white"/>
<path d="M1.21472 8.40544L9.13822 21.4392L1.72092 8.03894L1.21472 8.40544Z" fill="white"/>
<path d="M3.32703 6.77342L5.60503 14.339L4.00173 6.33142L3.32703 6.77342Z" fill="white"/>
<path d="M15.6193 22.7661L22.6903 13.8972L22.1681 13.2216L15.6193 22.7661Z" fill="white"/>
<path d="M21.1349 11.662L21.499 12.4309L17.0184 19.8336L21.1349 11.662Z" fill="white"/>
<path d="M13.4655 22.6039C13.3855 23.1693 13.6028 23.3436 14.1241 23.2117C14.349 23.1542 14.5946 22.9356 14.8006 23.1599C15.0067 23.3841 14.8251 23.6508 14.763 23.893C14.5466 24.7363 13.9896 25.2122 13.1634 25.4421C11.6758 25.8464 10.1403 25.8398 8.62442 25.9915C8.26592 26.0282 8.03352 25.803 7.93292 25.4779C7.83222 25.1528 7.97902 24.9248 8.24342 24.7524C8.48892 24.6083 8.75572 24.504 9.03372 24.4433C9.71262 24.26 10.3739 24.0165 11.0097 23.7158C11.4105 23.5274 11.5902 23.2532 11.4698 22.8084C11.4423 22.7035 11.4247 22.5962 11.4171 22.488C11.4049 22.3316 11.3437 22.1328 11.5667 22.0847C11.7897 22.0367 11.8621 22.2185 11.9214 22.3947C11.9694 22.5342 12.023 22.6774 12.0833 22.8084C12.1162 22.881 12.1651 22.9639 12.2573 22.9573C12.3749 22.9488 12.4003 22.8414 12.4163 22.75C12.4408 22.6162 12.438 22.4786 12.4672 22.3467C12.5311 22.0583 12.6196 21.7756 12.9959 21.7935C13.3036 21.8086 13.4928 22.0875 13.4777 22.4767C13.4711 22.5446 13.4645 22.6124 13.4655 22.6039Z" fill="white"/>
<path d="M12.9573 23.0912C13.358 23.0912 13.6828 22.7659 13.6828 22.3647C13.6828 21.9634 13.358 21.6382 12.9573 21.6382C12.5567 21.6382 12.2319 21.9634 12.2319 22.3647C12.2319 22.7659 12.5567 23.0912 12.9573 23.0912Z" fill="white"/>
</svg>