<svg width="62" height="85" viewBox="0 0 62 85" fill="none" xmlns="http://www.w3.org/2000/svg">
<path d="M35.4107 61.6139C33.5912 63.0425 31.3451 63.817 29.0331 63.8132H10.5911C7.89934 63.8144 5.313 62.7654 3.38071 60.8887C1.44842 59.012 0.322208 56.4552 0.240967 53.7608L0.26543 27.7958L1.63165 25.1753L4.07804 27.6818L4.50615 24.9746V29.6361L5.703 44.22L6.90362 49.3311C7.02927 49.8241 7.19609 50.3058 7.4023 50.7709V50.7784L8.30276 53.9511C8.6242 55.0802 9.22949 56.1078 10.0608 56.9356C10.8921 57.7635 11.9215 58.364 13.0507 58.6796L14.5562 59.0989L19.8121 61.9559C19.8121 61.9559 23.764 61.8561 24.0641 61.9559C24.3643 62.0558 26.1652 61.9559 26.1652 61.9559L28.2672 61.4848L33.4724 60.9053L35.4107 61.6139Z" fill="#7EA0E3"/>
<path d="M29.033 64.0507H10.591C7.83355 64.0639 5.18064 62.9949 3.20088 61.0726C1.22112 59.1504 0.072067 56.528 0 53.7674L0.023523 27.7374L1.56945 24.7739L3.9114 27.1758L4.26519 24.9379L4.73565 24.9746V29.6361L5.93061 44.1824L7.12746 49.2764C7.25051 49.7537 7.41324 50.2199 7.61392 50.6701L7.62521 50.6993L8.52849 53.8824C8.84197 54.9725 9.42801 55.9646 10.2312 56.7646C11.0343 57.5647 12.0281 58.1463 13.1183 58.4544L14.6718 58.8935L19.8713 61.7204C21.1048 61.6902 23.841 61.6337 24.1412 61.7345C24.3021 61.7863 25.2966 61.7694 26.135 61.7241L28.2426 61.253L33.5033 60.6678L35.898 61.5404L35.5602 61.8052C33.6998 63.2698 31.3994 64.0612 29.033 64.0507ZM0.498688 27.8552L0.475165 53.7608C0.544031 56.3965 1.64113 58.9004 3.53134 60.7358C5.42154 62.5712 7.95445 63.592 10.5872 63.5795H29.0292C31.1398 63.5886 33.1992 62.929 34.9128 61.6949L33.4422 61.1493L28.3057 61.7213L26.1773 62.1972C25.7445 62.2207 24.3058 62.2914 23.9878 62.1849C23.762 62.1312 21.6694 62.1501 19.8167 62.1972H19.7527L14.4657 59.3232L12.9885 58.9104C11.8204 58.5801 10.7558 57.9567 9.89546 57.0993C9.03515 56.2418 8.40758 55.1787 8.07215 54.0105L7.17357 50.8585C6.96537 50.385 6.79607 49.8953 6.66736 49.3942L5.46015 44.2436L4.26331 29.6569V27.9984L4.2332 28.1869L1.68707 25.5767L0.498688 27.8552Z" fill="#292883"/>
<path d="M4.5004 24.9755L4.07228 27.6818L1.62778 25.1753L0.26156 27.7968L0.238037 1.12036L2.45296 14.0487V20.6806L4.5004 24.9755Z" fill="white"/>
<path d="M0.0244634 28.7645L0 1.12035L0.47046 1.07983L2.68915 14.0487V20.6269L4.74412 24.9388L4.23131 28.1869L1.68519 25.5767L0.0244634 28.7645ZM1.56945 24.7739L3.9114 27.1758L4.2539 25.0085L2.21492 20.7333V14.0694L0.477987 3.93216L0.497746 26.83L1.56945 24.7739Z" fill="#292883"/>
<path d="M39.1817 24.5685C39.1055 24.4535 39.0246 24.3423 38.9418 24.2274C38.8938 24.1661 38.8477 24.1039 38.7988 24.0389C37.7392 22.6938 36.419 21.5771 34.9175 20.7559C34.8413 20.7107 34.7632 20.6683 34.6841 20.6297L34.7246 19.7015L36.7005 18.404L36.1915 15.9239L37.92 16.3008L39.1093 13.8263L39.1817 24.5685Z" fill="#292883"/>
<path d="M34.2523 36.1766L33.9935 36.6939L34.4169 26.8696C34.4932 26.9478 34.5684 27.026 34.6447 27.107C34.7848 27.255 34.9269 27.4067 35.0587 27.564C35.2412 27.7742 35.435 28.005 35.6232 28.2453C35.7173 28.3622 35.8114 28.4837 35.9055 28.6072C36.0814 28.8456 36.2574 29.0906 36.4258 29.3384C36.7081 29.7436 36.9753 30.1742 37.2406 30.619C37.078 30.6985 36.9458 30.8293 36.8643 30.9912L34.2523 36.1766Z" fill="#292883"/>
<path d="M39.3803 53.7588C39.3507 54.7562 39.1777 55.7442 38.8666 56.6922L37.5738 56.9965L31.0673 60.4576C31.0673 60.4576 28.7668 59.8555 28.4666 59.8555C28.1665 59.8555 19.8101 58.6531 19.8101 58.6531L15.9326 56.3473H24.4404C25.6655 56.3474 26.8787 56.1059 28.0106 55.6365C29.1425 55.1671 30.1711 54.479 31.0374 53.6115C31.9038 52.744 32.5911 51.7141 33.0601 50.5807C33.529 49.4472 33.7704 48.2323 33.7706 47.0054V41.8614L33.7772 41.6833L34.0293 41.3667L39.0162 35.1127L39.2514 34.8149L39.3803 53.7588Z" fill="#292883"/>
<path d="M39.4226 24.9454L39.3398 12.7898L37.7845 16.0322L35.8829 15.6167L36.4324 18.2975L34.4932 19.5743L34.4527 20.5119C34.5308 20.5505 34.6089 20.591 34.6851 20.6334C34.7613 20.6759 34.8422 20.7145 34.9184 20.7597L34.9589 19.8381L36.9649 18.5189L36.4945 16.2386L38.0527 16.5778L38.8807 14.8525L38.9446 24.2311C39.0274 24.3461 39.1084 24.4573 39.1846 24.5722C39.2533 24.6721 39.3172 24.772 39.3822 24.8719C39.3963 24.8983 39.4085 24.92 39.4226 24.9454ZM39.4866 34.5248L39.2514 34.8197L39.0162 35.1175L39.1422 53.757C39.1146 54.6873 38.9595 55.6093 38.6812 56.4972L37.5192 56.7705L31.039 60.208C30.5018 60.0676 28.762 59.6228 28.4694 59.6228C28.2003 59.6134 23.2087 58.9057 19.891 58.427L16.7982 56.5896H24.4404C26.9773 56.5866 29.4093 55.5757 31.2028 53.7789C32.9963 51.9821 34.0047 49.5461 34.0067 47.0055V41.8737L34.0283 41.3668L33.7762 41.6834L33.5315 41.9896V47.0055C33.5283 49.4192 32.5693 51.7331 30.8648 53.4397C29.1604 55.1463 26.8496 56.1062 24.4394 56.109H15.0679L19.6887 58.8586L19.7292 58.8822L19.7762 58.8897C21.1744 59.0895 28.1626 60.094 28.4666 60.094C28.6378 60.094 29.893 60.3964 31.007 60.6867L31.0955 60.7102L37.6584 57.2237L39.0481 56.8958L39.0914 56.7695C39.4104 55.7969 39.5873 54.7832 39.6165 53.7598L39.4866 34.5248ZM34.2523 36.1813L34.6446 27.1117C34.5684 27.0307 34.4932 26.9525 34.4169 26.8743C34.3407 26.7961 34.2645 26.7216 34.1883 26.6481L33.732 37.215L33.9935 36.6986L34.2523 36.1813Z" fill="#292883"/>
<path d="M39.4942 1.12036L39.1085 13.8225L37.9182 16.3055L36.1897 15.9295L36.6988 18.4096L34.7266 19.7072L35.5151 12.5467L36.1897 8.03587L39.4942 1.12036Z" fill="white"/>
<path d="M34.4338 20.184L35.2806 12.5203L35.9779 7.93319L39.7679 0L39.3473 13.88L38.0526 16.5778L36.4972 16.2395L36.9677 18.5208L34.4338 20.184ZM36.4191 8.10657L35.7492 12.5815L35.0172 19.2304L36.4285 18.2994L35.8828 15.6167L37.7844 16.0313L38.8721 13.7632L39.2212 2.23889L36.4191 8.10657Z" fill="#292883"/>
<path d="M38.8665 56.6932C38.2248 58.6391 37.0223 60.3513 35.4105 61.6139L33.4704 60.9062L28.2671 61.4857L26.1651 61.9569C26.1651 61.9569 24.3641 62.0568 24.064 61.9569C23.7638 61.857 19.812 61.9569 19.812 61.9569L14.556 59.0998L12.8031 58.6108C11.7491 58.3165 10.7882 57.7562 10.0125 56.9833C9.23687 56.2105 8.6724 55.2511 8.37322 54.1971L7.40125 50.7756C8.1315 52.4322 9.32689 53.8405 10.8419 54.8291C12.3569 55.8177 14.1262 56.3438 15.9344 56.3436L19.812 58.6504C19.812 58.6504 28.1673 58.8266 28.4684 58.8266C28.7695 58.8266 31.0691 58.2414 31.0691 58.2414L37.5756 56.9947L38.8665 56.6932Z" fill="#D88925"/>
<path d="M24.7802 62.2424C24.4264 62.2424 24.1159 62.2282 23.987 62.1848C23.7612 62.1311 21.6686 62.1501 19.8159 62.1972H19.7519L14.4649 59.3232L12.7421 58.8426C11.6508 58.5339 10.6562 57.9516 9.85219 57.1507C9.04824 56.3499 8.46152 55.357 8.14751 54.2659L7.17554 50.8433L7.62153 50.6823C8.33311 52.2968 9.49804 53.6692 10.9745 54.6325C12.451 55.5959 14.1753 56.1085 15.9374 56.1081H16.0033L19.8818 58.4156C20.6514 58.4326 28.1891 58.5919 28.4714 58.5919C28.6426 58.5919 29.8988 58.297 31.0119 58.0134L37.5315 56.7639L39.2252 56.3643L39.0925 56.7677C38.4383 58.7593 37.2079 60.5113 35.5575 61.8013L35.453 61.8824L33.4423 61.1493L28.3058 61.7212L26.1774 62.1972C25.9149 62.2113 25.3024 62.2424 24.7802 62.2424ZM22.7271 61.6769C23.4365 61.6769 24.0096 61.6921 24.1385 61.7345C24.2994 61.7863 25.2939 61.7702 26.1323 61.724L28.2399 61.2529L33.5006 60.6678L35.3674 61.3482C36.7791 60.2156 37.8607 58.7237 38.4988 57.0287L37.6294 57.2332L31.1135 58.4817C30.7371 58.5759 28.781 59.0716 28.4676 59.0716C28.1543 59.0716 20.1471 58.902 19.8055 58.8944H19.7434L15.8687 56.5886C14.3606 56.5785 12.8762 56.2114 11.5368 55.5172C10.1974 54.823 9.04082 53.8214 8.16162 52.5942L8.60103 54.1395C8.89229 55.1527 9.43685 56.0749 10.1832 56.8185C10.9296 57.5622 11.8531 58.1028 12.8663 58.3893L14.6691 58.8982L19.8686 61.7251C20.5743 61.7025 21.7749 61.6769 22.7271 61.6769Z" fill="#292883"/>
<path d="M32.0891 24.0031C27.3732 21.3458 21.8613 22.8017 16.4698 28.5016C17.3167 24.6288 19.5344 22.1487 22.2923 20.8398C25.9195 19.7628 30.1423 20.836 32.0891 24.0031Z" fill="#292883"/>
<path d="M38.1467 24.5524L35.6815 27.0184C34.5524 25.7218 33.349 24.7174 32.0891 24.0031C29.9842 21.1706 26.0023 19.9267 22.2969 20.8398C27.5247 18.3635 34.6926 20.0963 38.1467 24.5524Z" fill="#D88925"/>
<path d="M38.9353 25.7388L36.566 28.1115C36.4682 27.9821 36.3703 27.8565 36.2725 27.7346L38.6831 25.3223C38.7715 25.4571 38.8553 25.5956 38.9353 25.7388Z" fill="#D88925"/>
<path d="M39.6946 33.6023C38.9814 31.949 38.1167 30.3654 37.1118 28.8719L39.37 26.6104C40.2497 28.5977 40.4614 30.9572 39.6946 33.6023Z" fill="#D88925"/>
<path d="M38.6831 25.3223L36.2724 27.7346C36.0767 27.4877 35.8801 27.2493 35.6815 27.0222L38.1467 24.5525C38.3349 24.8006 38.5137 25.0572 38.6831 25.3223Z" fill="#D88925"/>
<path d="M39.3699 26.6067L37.1117 28.8682C36.932 28.6062 36.7514 28.3537 36.5679 28.1077L38.9371 25.735C39.0968 26.0177 39.2413 26.3086 39.3699 26.6067Z" fill="#D88925"/>
<path d="M17.6846 28.1115L25.6081 41.1453L18.1908 27.745L17.6846 28.1115Z" fill="#292883"/>
<path d="M19.7969 26.4795L22.0749 34.0451L20.4716 26.0375L19.7969 26.4795Z" fill="#292883"/>
<path d="M32.0891 42.4721L39.1601 33.6032L38.6379 32.9276L32.0891 42.4721Z" fill="#292883"/>
<path d="M37.6048 31.368L37.9689 32.1369L33.4883 39.5396L37.6048 31.368Z" fill="#292883"/>
<path d="M29.9354 42.31C29.8554 42.8754 30.0727 43.0497 30.594 42.9178C30.8189 42.8603 31.0645 42.6417 31.2705 42.866C31.4766 43.0902 31.295 43.3569 31.2329 43.5991C31.0165 44.4424 30.4595 44.9183 29.6333 45.1482C28.1457 45.5525 26.6102 45.5459 25.0943 45.6976C24.7358 45.7343 24.5034 45.5091 24.4028 45.184C24.3021 44.8589 24.4489 44.6309 24.7133 44.4585C24.9588 44.3144 25.2256 44.2101 25.5036 44.1494C26.1825 43.9661 26.8438 43.7226 27.4796 43.4219C27.8804 43.2335 28.0601 42.9593 27.9397 42.5145C27.9122 42.4096 27.8946 42.3023 27.887 42.1941C27.8748 42.0377 27.8136 41.8389 28.0366 41.7908C28.2596 41.7428 28.332 41.9246 28.3913 42.1008C28.4393 42.2403 28.4929 42.3835 28.5532 42.5145C28.5861 42.5871 28.635 42.67 28.7272 42.6634C28.8448 42.6549 28.8702 42.5475 28.8862 42.4561C28.9107 42.3223 28.9079 42.1847 28.9371 42.0528C29.001 41.7644 29.0895 41.4817 29.4658 41.4996C29.7735 41.5147 29.9627 41.7936 29.9476 42.1828C29.941 42.2507 29.9344 42.3185 29.9354 42.31Z" fill="#292883"/>
<path d="M29.4272 42.7972C29.8279 42.7972 30.1527 42.4719 30.1527 42.0707C30.1527 41.6694 29.8279 41.3442 29.4272 41.3442C29.0266 41.3442 28.7018 41.6694 28.7018 42.0707C28.7018 42.4719 29.0266 42.7972 29.4272 42.7972Z" fill="#292883"/>
<path d="M0.961578 73.876H0.69812V65.7034H4.2595V73.876H3.99134V65.9494H0.961578V73.876Z" fill="#292883" stroke="#292883" stroke-width="0.5" stroke-miterlimit="10" stroke-linejoin="round"/>
<path d="M5.42161 73.876H5.18262L7.20842 65.6921H7.58478L9.65481 73.876H9.39135L8.89925 71.9499H5.91371L5.42161 73.876ZM8.85126 71.7162L7.38907 65.9956L5.9617 71.7162H8.85126Z" fill="#292883" stroke="#292883" stroke-width="0.5" stroke-miterlimit="10" stroke-linejoin="round"/>
<path d="M13.9717 67.6776V68.4936C13.9717 69.7902 13.3724 70.4083 12.0419 70.4083H10.8422V73.876H10.5778V65.7034H12.2338C13.5285 65.7034 13.9717 66.5327 13.9717 67.6776ZM13.7083 68.5058V67.6653C13.7083 66.6608 13.3611 65.9494 12.2338 65.9494H10.8422V70.1633H12.0419C13.2171 70.1633 13.7083 69.6611 13.7083 68.5058Z" fill="#292883" stroke="#292883" stroke-width="0.5" stroke-miterlimit="10" stroke-linejoin="round"/>
<path d="M15.0877 73.876H14.8477L16.8745 65.6921H17.2461L19.3208 73.876H19.0564L18.5653 71.9499H15.5788L15.0877 73.876ZM18.5173 71.7162L17.0542 65.9956L15.6268 71.7162H18.5173Z" fill="#292883" stroke="#292883" stroke-width="0.5" stroke-miterlimit="10" stroke-linejoin="round"/>
<path d="M20.5083 73.876H20.2439V65.7034H23.8053V73.876H23.5418V65.9494H20.5083V73.876Z" fill="#292883" stroke="#292883" stroke-width="0.5" stroke-miterlimit="10" stroke-linejoin="round"/>
<path d="M26.1087 71.9028C26.0607 72.8715 26.0005 73.8534 24.8008 73.8882H24.717V73.6432C25.8085 73.6432 25.8207 72.732 25.8461 71.9028L26.0983 65.7034H29.0152V73.876H28.7376V65.9494H26.3477L26.1087 71.9028Z" fill="#292883" stroke="#292883" stroke-width="0.5" stroke-miterlimit="10" stroke-linejoin="round"/>
<path d="M30.1734 73.876H29.9335L31.9602 65.6921H32.3366L34.4066 73.876H34.1422L33.651 71.9499H30.6646L30.1734 73.876ZM33.6031 71.7162L32.1399 65.9956L30.7135 71.7162H33.6031Z" fill="#292883" stroke="#292883" stroke-width="0.5" stroke-miterlimit="10" stroke-linejoin="round"/>
<path d="M35.594 73.876H35.3297V65.7034H35.594V69.6733H38.6276V65.7034H38.891V73.876H38.6276V69.907H35.594V73.876Z" fill="#292883" stroke="#292883" stroke-width="0.5" stroke-miterlimit="10" stroke-linejoin="round"/>
<path d="M14.9324 83.8568H14.6924L16.7192 75.6729H17.0955L19.1656 83.8568H18.9021L18.411 81.9298H15.4235L14.9324 83.8568ZM18.3611 81.697L16.8989 75.9764L15.4706 81.697H18.3611Z" fill="#292883" stroke="#292883" stroke-width="0.5" stroke-miterlimit="10" stroke-linejoin="round"/>
<path d="M20.3521 83.8568H20.0886V75.6842H20.3521V79.6532H23.3865V75.6842H23.65V83.8568H23.3865V79.8869H20.3521V83.8568Z" fill="#292883" stroke="#292883" stroke-width="0.5" stroke-miterlimit="10" stroke-linejoin="round"/>
<path d="M24.813 83.8568H24.574L26.5998 75.6729H26.9761L29.0462 83.8568H28.7827L28.2906 81.9298H25.3051L24.813 83.8568ZM28.2426 81.697L26.7804 75.9764L25.3502 81.697H28.2426Z" fill="#292883" stroke="#292883" stroke-width="0.5" stroke-miterlimit="10" stroke-linejoin="round"/>
<path d="M30.2336 83.8568H29.9702V75.6842H33.5362V83.8568H33.2728V75.9292H30.2336V83.8568Z" fill="#292883" stroke="#292883" stroke-width="0.5" stroke-miterlimit="10" stroke-linejoin="round"/>
<path d="M34.6945 83.8568H34.4546L36.4813 75.6729H36.8577L38.9277 83.8568H38.6643L38.1722 81.9298H35.1866L34.6945 83.8568ZM38.1242 81.697L36.661 75.9764L35.2346 81.697H38.1242Z" fill="#292883" stroke="#292883" stroke-width="0.5" stroke-miterlimit="10" stroke-linejoin="round"/>
<path d="M61.6434 44.9221V55.1271C61.6439 56.2273 61.4279 57.3169 61.0078 58.3335C60.5877 59.3501 59.9717 60.2739 59.195 61.052C58.4182 61.8301 57.4961 62.4473 56.4811 62.8684C55.4661 63.2895 54.3782 63.5061 53.2796 63.506H45.6252V59.2657H52.9521C55.0758 59.212 56.2312 55.0253 57.4996 52.7638L57.4121 45.2462C57.4121 42.7774 58.002 40.776 55.5368 40.776H47.0168C46.6479 40.776 46.2941 40.9227 46.0331 41.1838C45.7722 41.445 45.6254 41.7992 45.6252 42.1687V83.6429H41.3911V40.0146C41.3904 39.1748 41.6939 38.3634 42.2451 37.7306C42.7963 37.0978 43.558 36.6866 44.3888 36.5733C44.5447 36.5519 44.7019 36.5409 44.8593 36.5403H55.8643C60.488 36.5356 61.6434 40.2878 61.6434 44.9221Z" fill="#292883"/>
<path d="M45.9818 84H41.0382V40.0127C41.0405 39.0873 41.3762 38.1939 41.9836 37.4965C42.5911 36.7992 43.4294 36.3449 44.3446 36.2171C44.5164 36.1937 44.6896 36.1817 44.863 36.1813H55.8643C59.993 36.1813 61.9991 39.0393 61.9991 44.9183V55.1271C61.9968 57.4426 61.0775 59.6627 59.4429 61.3003C57.8082 62.9379 55.5917 63.8592 53.2796 63.8622H45.9818V84ZM41.7477 83.2857H45.2648V42.1687C45.2653 41.7046 45.4497 41.2596 45.7775 40.9316C46.1052 40.6035 46.5496 40.4191 47.013 40.4188H55.5331C56.3187 40.4188 56.8833 40.6073 57.2587 41.0012C57.8976 41.6693 57.8515 42.7717 57.7979 44.0485C57.7819 44.4349 57.7649 44.8335 57.7649 45.2462L57.8534 52.8552L57.8073 52.9382C57.4892 53.5035 57.1769 54.1999 56.8475 54.9339C55.869 57.1116 54.7596 59.5804 52.9578 59.6266H45.9818V63.1489H53.2796C55.4029 63.1461 57.4384 62.3 58.9395 60.7962C60.4406 59.2923 61.2848 57.2535 61.2868 55.1271V44.9221C61.2868 39.3738 59.6138 36.8993 55.8643 36.8993H44.863C44.0383 36.9016 43.248 37.2307 42.6649 37.8149C42.0818 38.399 41.7534 39.1905 41.7514 40.0165L41.7477 83.2857ZM45.9818 58.9123H52.9521C54.2967 58.8784 55.3044 56.6273 56.2011 54.6409C56.522 53.9276 56.8259 53.251 57.142 52.6734L57.0592 45.25C57.0592 44.8184 57.0762 44.4123 57.0931 44.0184C57.1402 42.9055 57.1806 41.9453 56.7506 41.4959C56.5173 41.2518 56.1211 41.1331 55.5406 41.1331H47.0168C46.7423 41.1331 46.479 41.2423 46.2849 41.4367C46.0908 41.6311 45.9818 41.8947 45.9818 42.1696V58.9123Z" fill="#292883"/>
<path d="M41.0363 60.1354L44.3973 59.2977L49.6429 58.6956L55.4898 54.0868L57.5316 49.3188C57.5955 49.8504 57.6269 50.3853 57.6257 50.9207C57.9936 55.0989 56.8635 58.4751 54.3099 59.7265C51.4664 61.1201 49.2214 63.5381 45.9404 63.5381H41.0363" fill="#D88925"/>
<path d="M45.9404 63.768H41.0363V63.3091H45.9404C48.1252 63.3091 49.8301 62.2085 51.6358 61.0419C52.4572 60.5123 53.305 59.9649 54.2092 59.521C56.5765 58.362 57.7687 55.1544 57.398 50.9462C57.398 50.7115 57.3923 50.4835 57.381 50.2592L55.677 54.2384L49.7332 58.9235L44.4377 59.5275L41.0363 60.3757V59.9149L44.3709 59.0735L49.5516 58.4789L55.3025 53.9464L57.6548 48.45L57.7574 49.298C57.8215 49.8374 57.8529 50.3803 57.8515 50.9235C58.2382 55.3146 56.951 58.6909 54.4068 59.9375C53.527 60.3682 52.6896 60.9089 51.8804 61.431C50.1021 62.574 48.2598 63.768 45.9404 63.768Z" fill="#292883"/>
</svg>
